<svg width="161" height="50" viewBox="0 0 161 50" fill="none" xmlns="http://www.w3.org/2000/svg">
<g id="airbnb-logo-belo-1 1" clip-path="url(#clip0_31_823)">
<path id="Vector" d="M84.6354 12.5626C84.6354 14.3644 83.1839 15.8158 81.3821 15.8158C79.5803 15.8158 78.1289 14.3644 78.1289 12.5626C78.1289 10.7608 79.5303 9.30931 81.3821 9.30931C83.234 9.35936 84.6354 10.8108 84.6354 12.5626ZM71.222 19.1191V19.9199C71.222 19.9199 69.6704 17.9179 66.3671 17.9179C60.9117 17.9179 56.6574 22.0721 56.6574 27.8278C56.6574 33.5335 60.8616 37.7377 66.3671 37.7377C69.7205 37.7377 71.222 35.6857 71.222 35.6857V36.5365C71.222 36.9369 71.5223 37.2372 71.9227 37.2372H75.9767V18.4184H71.9227C71.5223 18.4184 71.222 18.7688 71.222 19.1191ZM71.222 31.1812C70.4712 32.2823 68.9697 33.2332 67.1679 33.2332C63.9647 33.2332 61.5123 31.2312 61.5123 27.8278C61.5123 24.4244 63.9647 22.4224 67.1679 22.4224C68.9197 22.4224 70.5213 23.4234 71.222 24.4745V31.1812ZM78.9797 18.4184H83.7845V37.2372H78.9797V18.4184ZM150.751 17.9179C147.448 17.9179 145.897 19.9199 145.897 19.9199V9.35936H141.092V37.2372H145.146C145.546 37.2372 145.847 36.8869 145.847 36.5365V35.6857C145.847 35.6857 147.398 37.7377 150.701 37.7377C156.157 37.7377 160.411 33.5335 160.411 27.8278C160.411 22.1221 156.157 17.9179 150.751 17.9179ZM149.951 33.1832C148.099 33.1832 146.647 32.2322 145.897 31.1311V24.4244C146.647 23.4234 148.249 22.3724 149.951 22.3724C153.154 22.3724 155.606 24.3744 155.606 27.7778C155.606 31.1812 153.154 33.1832 149.951 33.1832ZM138.589 26.0761V37.2873H133.785V26.6266C133.785 23.5235 132.784 22.2723 130.081 22.2723C128.629 22.2723 127.128 23.023 126.177 24.1241V37.2372H121.372V18.4184H125.176C125.576 18.4184 125.877 18.7688 125.877 19.1191V19.9199C127.278 18.4685 129.13 17.9179 130.982 17.9179C133.084 17.9179 134.836 18.5185 136.237 19.7197C137.939 21.1211 138.589 22.9229 138.589 26.0761ZM109.71 17.9179C106.407 17.9179 104.856 19.9199 104.856 19.9199V9.35936H100.051V37.2372H104.105C104.505 37.2372 104.806 36.8869 104.806 36.5365V35.6857C104.806 35.6857 106.357 37.7377 109.66 37.7377C115.116 37.7377 119.37 33.5335 119.37 27.8278C119.42 22.1221 115.166 17.9179 109.71 17.9179ZM108.91 33.1832C107.058 33.1832 105.606 32.2322 104.856 31.1311V24.4244C105.606 23.4234 107.208 22.3724 108.91 22.3724C112.113 22.3724 114.565 24.3744 114.565 27.7778C114.565 31.1812 112.113 33.1832 108.91 33.1832ZM95.8966 17.9179C97.3481 17.9179 98.0988 18.1682 98.0988 18.1682V22.6226C98.0988 22.6226 94.0948 21.2713 91.5923 24.1241V37.2873H86.7875V18.4184H90.8416C91.242 18.4184 91.5423 18.7688 91.5423 19.1191V19.9199C92.4432 18.8689 94.3951 17.9179 95.8966 17.9179ZM45.9967 35.5355C45.7465 34.9349 45.4962 34.2843 45.246 33.7337C44.8456 32.8328 44.4452 31.982 44.0948 31.1812L44.0448 31.1311C40.5913 23.6236 36.8876 16.016 32.9837 8.50851L32.8336 8.20821C32.4332 7.45746 32.0328 6.65666 31.6324 5.85586C31.1319 4.95496 30.6314 4.004 29.8306 3.1031C28.229 1.1011 25.9267 0 23.4742 0C20.9717 0 18.7195 1.1011 17.0678 3.003C16.3171 3.9039 15.7665 4.85486 15.266 5.75576C14.8656 6.55656 14.4652 7.35736 14.0648 8.10811L13.9147 8.40841C10.0608 15.9159 6.30705 23.5235 2.8536 31.031L2.80355 31.1311C2.4532 31.9319 2.0528 32.7828 1.6524 33.6837C1.40215 34.2342 1.1519 34.8348 0.901649 35.4855C0.250998 37.3373 0.050798 39.0891 0.301048 40.8909C0.851599 44.6446 3.3541 47.7978 6.80755 49.1992C8.10886 49.7498 9.46021 50 10.8616 50C11.262 50 11.7625 49.9499 12.1629 49.8999C13.8146 49.6997 15.5163 49.1492 17.1679 48.1982C19.22 47.0471 21.1719 45.3954 23.3741 42.993C25.5763 45.3954 27.5783 47.0471 29.5803 48.1982C31.232 49.1492 32.9337 49.6997 34.5853 49.8999C34.9857 49.9499 35.4862 50 35.8866 50C37.288 50 38.6894 49.7498 39.9407 49.1992C43.4442 47.7978 45.8966 44.5946 46.4472 40.8909C46.8476 39.1391 46.6474 37.3874 45.9967 35.5355ZM23.4242 38.1381C20.7215 34.7347 18.9697 31.5315 18.3691 28.8288C18.1189 27.6777 18.0688 26.6767 18.219 25.7758C18.3191 24.975 18.6194 24.2743 19.0198 23.6737C19.9707 22.3223 21.5723 21.4715 23.4242 21.4715C25.276 21.4715 26.9277 22.2723 27.8286 23.6737C28.229 24.2743 28.5293 24.975 28.6294 25.7758C28.7795 26.6767 28.7295 27.7277 28.4792 28.8288C27.8786 31.4815 26.1269 34.6847 23.4242 38.1381ZM43.3941 40.4905C43.0438 43.0931 41.292 45.3453 38.8396 46.3463C37.6384 46.8468 36.3371 46.997 35.0358 46.8468C33.7845 46.6967 32.5333 46.2963 31.232 45.5455C29.4302 44.5445 27.6284 42.993 25.5263 40.6907C28.8296 36.6366 30.8316 32.9329 31.5823 29.6296C31.9327 28.0781 31.9827 26.6767 31.8326 25.3754C31.6324 24.1241 31.1819 22.973 30.4812 21.972C28.9297 19.7197 26.3271 18.4184 23.4242 18.4184C20.5213 18.4184 17.9187 19.7698 16.3671 21.972C15.6664 22.973 15.216 24.1241 15.0158 25.3754C14.8156 26.6767 14.8656 28.1281 15.266 29.6296C16.0168 32.9329 18.0688 36.6867 21.3221 40.7407C19.27 43.043 17.4182 44.5946 15.6164 45.5956C14.3151 46.3463 13.0638 46.7467 11.8126 46.8969C10.4612 47.047 9.15991 46.8468 8.00876 46.3964C5.5563 45.3954 3.80455 43.1431 3.4542 40.5405C3.30405 39.2893 3.40415 38.038 3.90465 36.6366C4.0548 36.1361 4.30505 35.6356 4.5553 35.035C4.90565 34.2342 5.30605 33.3834 5.70645 32.5325L5.7565 32.4324C9.20996 24.975 12.9137 17.3674 16.7675 9.95996L16.9177 9.65966C17.3181 8.90891 17.7185 8.10811 18.1189 7.35736C18.5193 6.55656 18.9697 5.80581 19.5203 5.15516C20.5713 3.95395 21.9727 3.3033 23.5243 3.3033C25.0758 3.3033 26.4772 3.95395 27.5283 5.15516C28.0788 5.80581 28.5293 6.55656 28.9297 7.35736C29.3301 8.10811 29.7305 8.90891 30.1309 9.65966L30.281 9.95996C34.0848 17.4174 37.7885 25.025 41.242 32.4825V32.5325C41.6424 33.3333 41.9927 34.2342 42.3931 35.035C42.6434 35.6356 42.8936 36.1361 43.0438 36.6366C43.4442 37.9379 43.5943 39.1892 43.3941 40.4905Z" fill="#FF5A5F"/>
</g>
<defs>
<clipPath id="clip0_31_823">
<rect width="160.462" height="50" fill="white"/>
</clipPath>
</defs>
</svg>
